<svg width="24" height="24" viewBox="0 0 24 24" fill="none" xmlns="http://www.w3.org/2000/svg">
<path d="M12.9823 2.76406C12.631 2.49081 12.4553 2.35418 12.2613 2.30166C12.0902 2.25532 11.9098 2.25532 11.7387 2.30166C11.5447 2.35418 11.369 2.49081 11.0177 2.76406L4.23539 8.03919C3.78202 8.39181 3.55534 8.56812 3.39203 8.78892C3.24737 8.98451 3.1396 9.20484 3.07403 9.43911C3 9.70358 3 9.99076 3 10.5651V17.8C3 18.9202 3 19.4802 3.21799 19.908C3.40973 20.2843 3.71569 20.5903 4.09202 20.7821C4.51984 21 5.0799 21 6.2 21H8.2C8.48003 21 8.62004 21 8.727 20.9455C8.82108 20.8976 8.89757 20.8211 8.9455 20.727C9 20.6201 9 20.4801 9 20.2V13.6C9 13.04 9 12.76 9.10899 12.5461C9.20487 12.3579 9.35785 12.2049 9.54601 12.109C9.75992 12 10.0399 12 10.6 12H13.4C13.9601 12 14.2401 12 14.454 12.109C14.6422 12.2049 14.7951 12.3579 14.891 12.5461C15 12.76 15 13.04 15 13.6V20.2C15 20.4801 15 20.6201 15.0545 20.727C15.1024 20.8211 15.1789 20.8976 15.273 20.9455C15.38 21 15.52 21 15.8 21H17.8C18.9201 21 19.4802 21 19.908 20.7821C20.2843 20.5903 20.5903 20.2843 20.782 19.908C21 19.4802 21 18.9201 21 17.8V10.5651C21 9.99076 21 9.70358 20.926 9.43911C20.8604 9.20484 20.7526 8.98451 20.608 8.78892C20.4447 8.56812 20.218 8.39181 19.7646 8.03919L12.9823 2.76406Z" stroke="#8B95A1" stroke-width="1.5" stroke-linecap="round" stroke-linejoin="round"/>
</svg>
